<svg xmlns="http://www.w3.org/2000/svg" viewBox="0 0 400 300" preserveAspectRatio="xMidYMid slice">
  <rect width="400" height="300" fill="#5a352b"/>
  <rect width="400" height="70" fill="#3d5a3f"/>
  <g fill="#a15a4a" stroke="#4a2c22" stroke-width="2">
    <rect x="0" y="70" width="80" height="34"/><rect x="80" y="70" width="80" height="34"/><rect x="160" y="70" width="80" height="34"/><rect x="240" y="70" width="80" height="34"/><rect x="320" y="70" width="80" height="34"/>
    <rect x="-40" y="104" width="80" height="34"/><rect x="40" y="104" width="80" height="34"/><rect x="120" y="104" width="80" height="34"/><rect x="200" y="104" width="80" height="34"/><rect x="280" y="104" width="80" height="34"/><rect x="360" y="104" width="80" height="34"/>
    <rect x="0" y="138" width="80" height="34"/><rect x="80" y="138" width="80" height="34"/><rect x="160" y="138" width="80" height="34"/><rect x="240" y="138" width="80" height="34"/><rect x="320" y="138" width="80" height="34"/>
    <rect x="-40" y="172" width="80" height="34"/><rect x="40" y="172" width="80" height="34"/><rect x="120" y="172" width="80" height="34"/><rect x="200" y="172" width="80" height="34"/><rect x="280" y="172" width="80" height="34"/><rect x="360" y="172" width="80" height="34"/>
    <rect x="0" y="206" width="80" height="34"/><rect x="80" y="206" width="80" height="34"/><rect x="160" y="206" width="80" height="34"/><rect x="240" y="206" width="80" height="34"/><rect x="320" y="206" width="80" height="34"/>
    <rect x="-40" y="240" width="80" height="34"/><rect x="40" y="240" width="80" height="34"/><rect x="120" y="240" width="80" height="34"/><rect x="200" y="240" width="80" height="34"/><rect x="280" y="240" width="80" height="34"/><rect x="360" y="240" width="80" height="34"/>
    <rect x="0" y="274" width="80" height="34"/><rect x="80" y="274" width="80" height="34"/><rect x="160" y="274" width="80" height="34"/><rect x="240" y="274" width="80" height="34"/><rect x="320" y="274" width="80" height="34"/>
  </g>
  <rect width="400" height="300" fill="url(#shade)" opacity="0.18"/>
  <defs>
    <linearGradient id="shade" x1="0" y1="0" x2="0" y2="1">
      <stop offset="0" stop-color="#000000"/>
      <stop offset="1" stop-color="#000000" stop-opacity="0"/>
    </linearGradient>
  </defs>
</svg>
