<svg xmlns="http://www.w3.org/2000/svg" style="display:none">
  <defs>
    <symbol id="icon-phone" viewBox="0 0 24 24" fill="none" stroke="currentColor" stroke-width="1.8" stroke-linecap="round" stroke-linejoin="round">
      <path d="M22 16.92v3a2 2 0 0 1-2.18 2 19.79 19.79 0 0 1-8.63-3.07 19.5 19.5 0 0 1-6-6 19.79 19.79 0 0 1-3.07-8.67A2 2 0 0 1 4.11 2h3a2 2 0 0 1 2 1.72c.13.96.36 1.9.7 2.81a2 2 0 0 1-.45 2.11L8.09 9.91a16 16 0 0 0 6 6l1.27-1.27a2 2 0 0 1 2.11-.45c.91.34 1.85.57 2.81.7A2 2 0 0 1 22 16.92z"/>
    </symbol>
    <symbol id="icon-star" viewBox="0 0 24 24" fill="currentColor" stroke="none">
      <polygon points="12,2.5 15.09,9.26 22.5,10.14 17,15.14 18.51,22.5 12,18.77 5.49,22.5 7,15.14 1.5,10.14 8.91,9.26"/>
    </symbol>
    <symbol id="icon-concrete" viewBox="0 0 24 24" fill="none" stroke="currentColor" stroke-width="1.8" stroke-linecap="round" stroke-linejoin="round">
      <rect x="2.5" y="6" width="19" height="12" rx="1.5"/>
      <line x1="2.5" y1="12" x2="21.5" y2="12"/>
      <line x1="8" y1="6" x2="8" y2="12"/>
      <line x1="16" y1="12" x2="16" y2="18"/>
    </symbol>
    <symbol id="icon-masonry" viewBox="0 0 24 24" fill="none" stroke="currentColor" stroke-width="1.8" stroke-linecap="round" stroke-linejoin="round">
      <path d="M4 21 L12 4 L20 21 Z"/>
      <line x1="6.2" y1="16" x2="17.8" y2="16"/>
      <line x1="10.5" y1="6" x2="10.5" y2="4"/>
      <line x1="13.5" y1="6" x2="13.5" y2="4"/>
    </symbol>
    <symbol id="icon-paving" viewBox="0 0 24 24" fill="none" stroke="currentColor" stroke-width="1.8" stroke-linecap="round" stroke-linejoin="round">
      <path d="M3 20 L9 4 H15 L21 20 Z"/>
      <line x1="11.3" y1="8" x2="12.7" y2="8"/>
      <line x1="10.5" y1="13" x2="13.5" y2="13"/>
      <line x1="9.3" y1="18" x2="14.7" y2="18"/>
    </symbol>
    <symbol id="icon-wrench" viewBox="0 0 24 24" fill="none" stroke="currentColor" stroke-width="1.8" stroke-linecap="round" stroke-linejoin="round">
      <path d="M14.7 6.3a4 4 0 0 0-5.66 4.6L3 17l3 3 6.1-6.06a4 4 0 0 0 4.6-5.66l-2.83 2.83-2.12-2.12z"/>
    </symbol>
    <symbol id="icon-lock" viewBox="0 0 24 24" fill="none" stroke="currentColor" stroke-width="1.8" stroke-linecap="round" stroke-linejoin="round">
      <rect x="4.5" y="10.5" width="15" height="10" rx="1.5"/>
      <path d="M7.5 10.5V7a4.5 4.5 0 0 1 9 0v3.5"/>
      <line x1="12" y1="14.5" x2="12" y2="17"/>
    </symbol>
    <symbol id="icon-dollar" viewBox="0 0 24 24" fill="none" stroke="currentColor" stroke-width="1.8" stroke-linecap="round" stroke-linejoin="round">
      <circle cx="12" cy="12" r="9.5"/>
      <path d="M14.8 9.3c0-1.3-1.25-2.3-2.8-2.3s-2.8 1-2.8 2.2 1.1 1.8 2.8 2.1c1.7.3 2.8.9 2.8 2.1s-1.25 2.2-2.8 2.2-2.8-1-2.8-2.3"/>
      <line x1="12" y1="5.5" x2="12" y2="18.5"/>
    </symbol>
    <symbol id="icon-home" viewBox="0 0 24 24" fill="none" stroke="currentColor" stroke-width="1.8" stroke-linecap="round" stroke-linejoin="round">
      <path d="M3.5 10.5 12 3l8.5 7.5V20a1 1 0 0 1-1 1h-4.5v-6.5h-6V21H4.5a1 1 0 0 1-1-1z"/>
    </symbol>
    <symbol id="icon-check" viewBox="0 0 24 24" fill="none" stroke="currentColor" stroke-width="2" stroke-linecap="round" stroke-linejoin="round">
      <polyline points="4.5,12.5 9.5,17.5 19.5,6.5"/>
    </symbol>
    <symbol id="icon-shield" viewBox="0 0 24 24" fill="none" stroke="currentColor" stroke-width="1.8" stroke-linecap="round" stroke-linejoin="round">
      <path d="M12 2.5 20 6v6c0 5-3.4 8.2-8 9.5-4.6-1.3-8-4.5-8-9.5V6z"/>
      <polyline points="8.5,12 11,14.5 15.5,9.5"/>
    </symbol>
    <symbol id="icon-clipboard" viewBox="0 0 24 24" fill="none" stroke="currentColor" stroke-width="1.8" stroke-linecap="round" stroke-linejoin="round">
      <rect x="5" y="4.5" width="14" height="17" rx="1.5"/>
      <rect x="9" y="2.5" width="6" height="3.5" rx="1"/>
      <line x1="8" y1="11" x2="16" y2="11"/>
      <line x1="8" y1="15" x2="16" y2="15"/>
      <line x1="8" y1="19" x2="13" y2="19"/>
    </symbol>
    <symbol id="icon-briefcase" viewBox="0 0 24 24" fill="none" stroke="currentColor" stroke-width="1.8" stroke-linecap="round" stroke-linejoin="round">
      <rect x="2.5" y="7.5" width="19" height="12.5" rx="1.5"/>
      <path d="M8.5 7.5V5.5a1.5 1.5 0 0 1 1.5-1.5h4a1.5 1.5 0 0 1 1.5 1.5v2"/>
      <line x1="2.5" y1="13" x2="21.5" y2="13"/>
    </symbol>
    <symbol id="icon-building" viewBox="0 0 24 24" fill="none" stroke="currentColor" stroke-width="1.8" stroke-linecap="round" stroke-linejoin="round">
      <rect x="4" y="3" width="16" height="18" rx="1"/>
      <line x1="8" y1="7" x2="8" y2="7.01"/>
      <line x1="12" y1="7" x2="12" y2="7.01"/>
      <line x1="16" y1="7" x2="16" y2="7.01"/>
      <line x1="8" y1="11" x2="8" y2="11.01"/>
      <line x1="12" y1="11" x2="12" y2="11.01"/>
      <line x1="16" y1="11" x2="16" y2="11.01"/>
      <line x1="8" y1="15" x2="8" y2="15.01"/>
      <line x1="12" y1="15" x2="12" y2="15.01"/>
      <line x1="16" y1="15" x2="16" y2="15.01"/>
      <rect x="10" y="17.5" width="4" height="3.5"/>
    </symbol>
    <symbol id="icon-landmark" viewBox="0 0 24 24" fill="none" stroke="currentColor" stroke-width="1.8" stroke-linecap="round" stroke-linejoin="round">
      <path d="M3 9.5 12 4l9 5.5"/>
      <line x1="3" y1="20.5" x2="21" y2="20.5"/>
      <line x1="4.5" y1="9.5" x2="4.5" y2="18"/>
      <line x1="9" y1="9.5" x2="9" y2="18"/>
      <line x1="15" y1="9.5" x2="15" y2="18"/>
      <line x1="19.5" y1="9.5" x2="19.5" y2="18"/>
      <line x1="3" y1="18" x2="21" y2="18"/>
    </symbol>
    <symbol id="icon-clock" viewBox="0 0 24 24" fill="none" stroke="currentColor" stroke-width="1.8" stroke-linecap="round" stroke-linejoin="round">
      <circle cx="12" cy="12" r="9.5"/>
      <polyline points="12,6.5 12,12 16,14.5"/>
    </symbol>
    <symbol id="icon-chat" viewBox="0 0 24 24" fill="none" stroke="currentColor" stroke-width="1.8" stroke-linecap="round" stroke-linejoin="round">
      <path d="M4 4.5h16a1 1 0 0 1 1 1V15a1 1 0 0 1-1 1H9l-4.5 4V16H4a1 1 0 0 1-1-1V5.5a1 1 0 0 1 1-1z"/>
    </symbol>
  </defs>
</svg>
